<svg width="64" height="64" viewBox="0 0 64 64" fill="none" xmlns="http://www.w3.org/2000/svg">
  <!-- 3x3 Grid (Workspaces) -->
  <rect x="4" y="4" width="16" height="16" rx="3" fill="#b4befe"/>
  <rect x="24" y="4" width="16" height="16" rx="3" fill="#b4befe"/>
  <rect x="44" y="4" width="16" height="16" rx="3" fill="#b4befe"/>
  
  <rect x="4" y="24" width="16" height="16" rx="3" fill="#b4befe"/>
  <rect x="24" y="24" width="16" height="16" rx="3" fill="#b4befe"/>
  <rect x="44" y="24" width="16" height="16" rx="3" fill="#b4befe"/>
  
  <rect x="4" y="44" width="16" height="16" rx="3" fill="#b4befe"/>
  <rect x="24" y="44" width="16" height="16" rx="3" fill="#b4befe"/>
  <rect x="44" y="44" width="16" height="16" rx="3" fill="#b4befe"/>
  
  <!-- Flash (Lightning Bolt) -->
  <!-- A slightly offset shadow for depth -->
  <path d="M38 10L22 34H34L30 54L46 30H34L38 10Z" fill="#1e1e2e" opacity="0.2" transform="translate(2, 2)"/>
  <path d="M38 10L22 34H34L30 54L46 30H34L38 10Z" fill="#f9e2af" stroke="#1e1e2e" stroke-width="2" stroke-linejoin="round"/>
</svg>
